<?xml version="1.0" standalone="no"?>
<!DOCTYPE svg PUBLIC "-//W3C//DTD SVG 1.1//EN" "http://www.w3.org/Graphics/SVG/1.1/DTD/svg11.dtd" >
<svg xmlns="http://www.w3.org/2000/svg">
<metadata></metadata>
<defs>
<font id="edelsansregular" horiz-adv-x="927" >
<font-face units-per-em="2048" ascent="1536" descent="-512" />
<missing-glyph horiz-adv-x="616" />
<glyph horiz-adv-x="2048" />
<glyph horiz-adv-x="2048" />
<glyph unicode="&#xd;" horiz-adv-x="2048" />
<glyph unicode=" "  horiz-adv-x="616" />
<glyph unicode="&#x09;" horiz-adv-x="616" />
<glyph unicode="&#xa0;" horiz-adv-x="616" />
<glyph unicode="!" horiz-adv-x="526" d="M152 90q0 46 32.5 79.5t77.5 33.5q47 0 80 -33.5t33 -79.5t-33 -79.5t-80 -33.5q-45 0 -77.5 33.5t-32.5 79.5zM180 1667h168l-16 -1325l-139 2z" />
<glyph unicode="%" horiz-adv-x="1794" d="M100 1327q0 152 104 256.5t255 104.5q149 0 252.5 -104.5t103.5 -256.5t-103 -256t-253 -104q-151 0 -255 104t-104 256zM242 1327q0 -92 63 -157.5t154 -65.5q90 0 152.5 65t62.5 158t-62.5 158t-152.5 65q-91 0 -154 -65.5t-63 -157.5zM367 25l944 1691l123 -69 l-945 -1692zM979 334q0 151 102.5 254.5t251.5 103.5t252 -103.5t103 -254.5t-103 -254t-252 -103t-251.5 103t-102.5 254zM1120 334q0 -91 62 -155t151 -64t151 64t62 155t-62 156t-151 65t-151 -65t-62 -156z" />
<glyph unicode="&#x26;" horiz-adv-x="1714" d="M115 608q0 89 23.5 175t70.5 160t111.5 130t151.5 88.5t185 32.5q80 0 150 -25l100 111l111 -100l-709 -785q137 -268 451 -268q151 0 283.5 83.5t210 223t77.5 297.5q0 52 -10 117l-186 -76l-56 139l514 222l60 -138l-183 -77q19 -100 19 -189q0 -146 -55 -283.5 t-149 -241t-230 -166.5t-289 -63q-134 0 -253 46t-207 127t-139.5 200.5t-51.5 259.5zM248 608q0 -35 6 -51l438 485q-5 0 -15 1t-15 1q-113 0 -209 -61t-150.5 -161.5t-54.5 -213.5z" />
<glyph unicode="'" horiz-adv-x="327" d="M100 1626h156v-340h-141z" />
<glyph unicode="(" horiz-adv-x="561" d="M102 735q0 112 13 219.5t30.5 190t49.5 171t55 142.5t64 127t59.5 102.5t56.5 88.5l131 -74q-37 -57 -59.5 -94.5t-63.5 -113.5t-67.5 -149t-54.5 -168.5t-42 -208t-14 -233.5t14 -234t42 -208.5t54.5 -169t67.5 -148.5t63.5 -112.5t59.5 -93.5l-131 -76q-38 58 -57 88.5 t-59.5 103t-63.5 127t-55 143t-49.5 171t-30.5 190t-13 219.5z" />
<glyph unicode=")" horiz-adv-x="561" d="M0 -231q37 56 59.5 93.5t63.5 112.5t67.5 148.5t54.5 169t42 208.5t14 234t-14 233.5t-42 208t-54.5 168.5t-67.5 149t-63.5 113.5t-59.5 94.5l131 74q38 -59 56.5 -88.5t59.5 -102.5t64 -127t55 -142.5t49.5 -171t30.5 -190t13 -219.5t-13 -219.5t-30.5 -190t-49.5 -171 t-55 -143t-63.5 -127t-59.5 -103t-57 -88.5z" />
<glyph unicode="+" horiz-adv-x="929" d="M160 477v139h252v254h143v-254h252v-139h-252v-254h-143v254h-252z" />
<glyph unicode="," horiz-adv-x="442" d="M115 84q0 46 27.5 76t78.5 30q70 0 101 -69q35 -74 0 -179t-105 -182l-90 66q44 61 61 99t13.5 52.5t-19.5 22.5q-2 1 -12.5 6t-15.5 8t-14 10t-13.5 14t-8 19t-3.5 27z" />
<glyph unicode="-" d="M143 588v147h641v-147h-641z" />
<glyph unicode="." horiz-adv-x="428" d="M102 90q0 46 32.5 79.5t78.5 33.5q47 0 80 -33.5t33 -79.5t-33 -79.5t-80 -33.5q-46 0 -78.5 33.5t-32.5 79.5z" />
<glyph unicode="0" horiz-adv-x="1232" d="M92 502q0 144 70 263t190 187t264 68t264.5 -68t190.5 -187t70 -263t-70 -265t-191 -190.5t-264 -69.5t-263.5 69.5t-190.5 190.5t-70 265zM252 502q0 -158 105 -267.5t259 -109.5t259.5 109.5t105.5 267.5q0 157 -105 263.5t-260 106.5t-259.5 -106.5t-104.5 -263.5z " />
<glyph unicode="1" horiz-adv-x="591" d="M51 856v143h387v-999h-155v856h-232z" />
<glyph unicode="2" horiz-adv-x="862" d="M102 788q33 104 119.5 169t198.5 65q140 0 240 -97t100 -237q0 -36 -6.5 -67.5t-20.5 -58.5t-27.5 -48.5t-38.5 -43t-41 -35t-46.5 -31t-45 -25t-45.5 -23.5q-120 -61 -167 -103.5t-48 -109.5h486v-143h-643v82q0 50 8 93t18.5 74t32 60.5t37.5 47t48 39t50 31.5 t55.5 30.5t53.5 29.5q35 20 48 27.5t39 24t35 25t24 24t20 29t9.5 32t4.5 39.5q0 78 -52 132t-128 54q-66 0 -116 -42t-62 -105z" />
<glyph unicode="3" horiz-adv-x="1091" d="M82 -129l141 55q36 -88 114.5 -141t176.5 -53q133 0 224 94t91 229q0 134 -90.5 227.5t-224.5 94.5h-133l289 477h-482v147h748l-299 -491q153 -40 252.5 -166t99.5 -289q0 -197 -139 -334t-336 -137q-145 0 -261 78.5t-171 208.5z" />
<glyph unicode="4" horiz-adv-x="1159" d="M20 0l920 1112v-969h199v-143h-199v-389h-156v389h-764zM338 143h446v547z" />
<glyph unicode="5" horiz-adv-x="1095" d="M82 -176l129 76q45 -77 122 -122.5t167 -45.5q141 0 237.5 99.5t96.5 244.5q0 148 -89 245t-227 97q-130 0 -235 -80l-119 51l153 612h553v-147h-436l-80 -317q86 28 164 28q200 0 337.5 -140.5t137.5 -348.5q0 -136 -66 -249t-179.5 -178t-247.5 -65q-132 0 -243 65 t-175 175z" />
<glyph unicode="6" horiz-adv-x="1189" d="M92 477q0 350 196 646t558 499l76 -131q-415 -232 -576 -582q117 68 250 68q136 0 251.5 -66t183 -181t67.5 -253t-67.5 -253t-183 -181t-251.5 -66q-103 0 -190 33.5t-143.5 86.5t-96 120.5t-57 133t-17.5 126.5zM252 477q0 -23 4 -50.5t15 -62t27.5 -67t43.5 -64.5 t61.5 -55.5t84.5 -38t108 -14.5q144 0 243 102t99 250t-99 250t-243 102q-146 0 -245 -102t-99 -250z" />
<glyph unicode="7" horiz-adv-x="974" d="M41 858v143h913q-130 -210 -238 -417t-172 -356.5t-111.5 -287t-66.5 -209.5t-28 -122h-152q7 46 32.5 142t79 258t156 389.5t232.5 459.5h-645z" />
<glyph unicode="8" horiz-adv-x="1239" d="M92 500q0 162 81.5 277.5t217.5 187.5q-70 60 -110.5 127.5t-40.5 158.5q0 158 112 267.5t269 109.5t268.5 -109.5t111.5 -267.5q0 -92 -40 -159t-111 -127q133 -72 215 -189.5t82 -275.5q0 -144 -70.5 -264.5t-191.5 -189.5t-264 -69q-144 0 -265.5 69t-192.5 189.5 t-71 264.5zM252 500q0 -157 107 -266t262 -109t260.5 109t105.5 266q0 159 -105.5 268t-260.5 109t-262 -109.5t-107 -267.5zM399 1251q0 -96 64.5 -163.5t157.5 -67.5t157 67.5t64 163.5t-64 163t-157 67t-157.5 -67t-64.5 -163z" />
<glyph unicode="9" horiz-adv-x="1171" d="M92 532q0 135 66.5 247.5t180 177.5t247.5 65q101 0 186 -33t140 -85t94 -118t56 -130t17 -124q0 -314 -174 -574t-471 -392l-67 137q289 129 440 393q-102 -51 -221 -51q-134 0 -247.5 64.5t-180 176.5t-66.5 246zM252 532q0 -143 96.5 -241t237.5 -98t237.5 98 t96.5 241q0 33 -8 72t-31 88.5t-58.5 88.5t-97 66t-139.5 27q-141 0 -237.5 -99.5t-96.5 -242.5z" />
<glyph unicode=":" horiz-adv-x="428" d="M102 90q0 46 32.5 79.5t78.5 33.5q47 0 80 -33.5t33 -79.5t-33 -79.5t-80 -33.5q-46 0 -78.5 33.5t-32.5 79.5zM102 909q0 46 32.5 79.5t78.5 33.5q47 0 80 -33.5t33 -79.5t-33 -79t-80 -33q-46 0 -78.5 33t-32.5 79z" />
<glyph unicode=";" horiz-adv-x="428" d="M102 909q0 46 32.5 79.5t78.5 33.5q47 0 80 -33.5t33 -79.5t-33 -79t-80 -33q-46 0 -78.5 33t-32.5 79zM115 84q0 46 27.5 76t78.5 30q70 0 101 -69q35 -74 0 -179t-105 -182l-90 66q44 61 61 99t13.5 52.5t-19.5 22.5q-2 1 -12.5 6t-15.5 8t-14 10t-13.5 14t-8 19 t-3.5 27z" />
<glyph unicode="&#x3c;" horiz-adv-x="636" d="M123 492l344 436l108 -86l-276 -350l276 -340l-108 -84z" />
<glyph unicode="&#x3e;" horiz-adv-x="636" d="M61 152l277 340l-277 350l109 86l344 -436l-344 -424z" />
<glyph unicode="?" horiz-adv-x="897" d="M78 1370q29 151 127 236.5t244 85.5q152 0 259 -108t107 -259q0 -33 -4 -63.5t-15 -60t-19.5 -51.5t-29 -50.5t-30.5 -44t-38 -44.5t-37.5 -39t-41.5 -41t-39 -38q-13 -12 -46.5 -42.5t-45.5 -42.5t-34.5 -37t-31 -41.5t-16.5 -39.5t-8 -47q0 -51 38.5 -100t106.5 -82 l-67 -133q-108 56 -167 138t-59 177q0 30 6 58t13 50t24 48.5t28 42t35.5 41.5t36.5 38t42 39.5t41 38.5q7 7 44.5 43t46 45t36.5 39.5t36.5 46.5t23.5 43.5t19.5 53.5t4.5 55q0 91 -63.5 155t-155.5 64q-94 0 -155 -62t-75 -157zM322 90q0 46 32.5 79.5t77.5 33.5 q47 0 80 -33.5t33 -79.5t-33 -79.5t-80 -33.5q-45 0 -77.5 33.5t-32.5 79.5z" />
<glyph unicode="A" horiz-adv-x="1527" d="M82 0l682 1716l682 -1716h-170l-139 346h-750l-137 -346h-168zM446 494h635l-317 796z" />
<glyph unicode="B" horiz-adv-x="1253" d="M184 1667h457q171 0 290.5 -119.5t119.5 -292.5q0 -96 -45.5 -184.5t-118.5 -130.5q121 -58 197.5 -177t76.5 -261q0 -139 -67.5 -254.5t-183.5 -181.5t-255 -66h-469zM344 850l2 -703h309q144 0 243 104t99 251q0 146 -98.5 247t-243.5 101v2q-6 -2 -311 -2zM344 997 h297q103 0 174.5 75.5t71.5 182.5q0 108 -71.5 186.5t-174.5 78.5h-297v-523z" />
<glyph unicode="C" horiz-adv-x="1568" d="M113 834q0 183 61.5 342.5t168.5 272t257.5 177t323.5 64.5q334 0 559 -197l-97 -125q-191 170 -462 170q-185 0 -333.5 -91.5t-231.5 -252.5t-83 -360q0 -150 49 -281t134 -224t205.5 -146.5t259.5 -53.5q274 0 467 172l96 -123q-229 -201 -563 -201q-173 0 -323.5 64.5 t-257.5 177.5t-168.5 272.5t-61.5 342.5z" />
<glyph unicode="D" horiz-adv-x="1470" d="M184 0v1667h361q173 0 324 -63t258 -173t169 -265.5t62 -334.5q0 -178 -61.5 -333t-169 -264t-258.5 -171.5t-324 -62.5h-361zM344 147h201q186 0 334.5 89t231.5 245.5t83 349.5q0 194 -83 351.5t-231.5 247.5t-334.5 90h-201v-1373z" />
<glyph unicode="E" horiz-adv-x="1306" d="M184 0v1665h926v-147h-766v-566h602v-147h-602v-658h778v-147h-938z" />
<glyph unicode="F" horiz-adv-x="1128" d="M184 0v1665h926v-147h-766v-570h602v-147h-602v-801h-160z" />
<glyph unicode="G" horiz-adv-x="1800" d="M113 831q0 184 63 344t172.5 273t264 177.5t331.5 64.5t330 -60.5t266 -173.5l-104 -117q-193 199 -492 199q-143 0 -267.5 -53.5t-212 -147t-138 -225t-50.5 -281.5q0 -200 85.5 -360.5t238.5 -251t344 -90.5q175 0 318 78t233 209v350h-518v145h678l2 -542 q-117 -187 -301 -289.5t-412 -102.5q-177 0 -331.5 64t-264 176.5t-172.5 271.5t-63 342z" />
<glyph unicode="H" horiz-adv-x="1538" d="M184 0v1667h160v-717h850v717h160v-1667h-160v803h-850v-803h-160z" />
<glyph unicode="I" horiz-adv-x="528" d="M184 0v1667h160v-1667h-160z" />
<glyph unicode="J" horiz-adv-x="493" d="M-18 -152q98 4 152 84.5t54 221.5v1513h160v-1513q0 -110 -27.5 -196t-74.5 -139t-102.5 -83.5t-118.5 -40.5z" />
<glyph unicode="K" horiz-adv-x="1320" d="M184 0v1667h160v-719l651 719h211l-731 -807l785 -860h-213l-703 772v-772h-160z" />
<glyph unicode="L" horiz-adv-x="1028" d="M184 0v1667h160v-1520h629v-147h-789z" />
<glyph unicode="M" horiz-adv-x="1970" d="M123 0l180 1716l682 -1046l694 1044l168 -1714h-161l-121 1257l-582 -878l-571 878l-127 -1257h-162z" />
<glyph unicode="N" horiz-adv-x="1683" d="M184 0v1716l1135 -1339v1290h160v-1712l-1135 1345v-1300h-160z" />
<glyph unicode="O" horiz-adv-x="1886" d="M113 834q0 245 107.5 441t297 305.5t426.5 109.5q177 0 331 -64t264 -176.5t172.5 -272t62.5 -343.5t-62.5 -343.5t-172 -272t-264 -177t-331.5 -64.5t-331.5 64.5t-264 177t-172.5 272t-63 343.5zM276 834q0 -201 85.5 -362t238 -252t344.5 -91q144 0 268 53.5 t211.5 146.5t137 224t49.5 281q0 202 -85 362.5t-237 251t-344 90.5t-344.5 -90.5t-238 -251t-85.5 -362.5z" />
<glyph unicode="P" horiz-adv-x="1284" d="M184 0v1667h500q136 0 250.5 -66t181 -180.5t66.5 -251.5q0 -138 -66.5 -252.5t-181 -179.5t-250.5 -65h-344v-672h-156zM342 819h342q140 0 237 102.5t97 247.5q0 144 -97 247.5t-237 103.5h-342v-701z" />
<glyph unicode="Q" horiz-adv-x="1902" d="M123 834q0 245 107.5 441t297 305.5t426.5 109.5q177 0 331 -64t264 -176.5t172.5 -272t62.5 -343.5q0 -325 -187 -560l199 -196l-110 -111l-197 197q-222 -187 -535 -187q-177 0 -331.5 64.5t-264 177t-172.5 272t-63 343.5zM287 834q0 -201 85 -362t237.5 -252 t344.5 -91q245 0 422 147l-248 248l111 111l244 -246q137 185 137 445q0 202 -85 362.5t-237 251t-344 90.5t-344.5 -90.5t-237.5 -251t-85 -362.5z" />
<glyph unicode="R" horiz-adv-x="1320" d="M184 0v1667h527q198 0 336.5 -139t138.5 -338q0 -184 -118.5 -317.5t-297.5 -155.5l449 -717h-185l-448 713h-242v-713h-160zM344 860h367q131 0 221 97.5t90 232.5t-90 232.5t-221 97.5h-367v-660z" />
<glyph unicode="S" horiz-adv-x="1189" d="M82 160l96 125q89 -81 187.5 -118.5t222.5 -37.5q18 0 39 1.5t57 8.5t69 18t69 33.5t62 52.5t43 77t17 104q0 81 -25.5 140t-88.5 102.5t-104 63t-136 56.5q-11 5 -17 7q-157 60 -218 96q-163 94 -203 255q-15 59 -15 130q0 186 132 301t343 115q235 0 447 -158l-94 -125 q-180 131 -353 131q-46 0 -90 -9t-84.5 -29.5t-70.5 -50.5t-48 -75t-18 -100q0 -34 6 -64.5t14 -54t25 -45.5t31 -37.5t39 -32t43 -26.5t49.5 -23.5t51 -21t55.5 -21t55 -20.5q54 -21 94.5 -38.5t88.5 -44t82.5 -53.5t69 -65.5t56 -81.5t34.5 -99.5t13 -121.5 q0 -112 -44.5 -200t-120 -140.5t-166 -79.5t-189.5 -27q-152 0 -274.5 43.5t-231.5 139.5z" />
<glyph unicode="T" horiz-adv-x="1308" d="M82 1520v147h1145v-147h-490v-1520h-159v1520h-496z" />
<glyph unicode="U" horiz-adv-x="1533" d="M184 565v1102h160v-1102q0 -182 122.5 -309t301.5 -127q178 0 300 127t122 309v1102h160v-1102q0 -162 -77 -297.5t-210.5 -213t-294.5 -77.5q-121 0 -229.5 46t-186 124t-123 187t-45.5 231z" />
<glyph unicode="V" horiz-adv-x="1449" d="M82 1667h172l469 -1270l473 1270h172l-645 -1718z" />
<glyph unicode="W" horiz-adv-x="2084" d="M82 1667h168l336 -1235l456 1081l457 -1081l336 1235h168l-473 -1712l-488 1153l-487 -1153z" />
<glyph unicode="X" horiz-adv-x="1429" d="M82 0l526 854l-516 813h191l432 -688l418 688h190l-514 -836l528 -831h-190l-445 707l-432 -707h-188z" />
<glyph unicode="Y" horiz-adv-x="1384" d="M82 1667h178l430 -778l432 778h181l-533 -960v-707h-160v707z" />
<glyph unicode="Z" horiz-adv-x="1339" d="M78 0l905 1520h-840v147h1114l-909 -1520h883v-147h-1153z" />
<glyph unicode="a" horiz-adv-x="1077" d="M82 307q0 68 30 139.5t99 126.5q109 88 313 88q111 0 250 -26q-10 133 -66 186t-184 53q-163 0 -307 -79l-63 135q173 92 372 92q102 0 178 -28t119 -71t69 -109t34 -128t8 -141v-545h-156v113q-43 -46 -90 -75.5t-94 -41.5t-79 -15.5t-73 -3.5q-90 0 -171 38t-135 115 t-54 177zM242 307q0 -13 3 -30.5t16.5 -47t35 -52t64.5 -38.5q38 -14 88 -14h12q157 6 237 78t80 207v79q-140 28 -245 28q-150 0 -226 -58q-65 -50 -65 -152z" />
<glyph unicode="b" horiz-adv-x="1234" d="M160 0v1667h155v-807q62 78 150 120t184 42q151 0 265 -72.5t171.5 -189.5t57.5 -258q0 -230 -142.5 -377.5t-357.5 -147.5q-89 0 -182 43.5t-146 118.5v-139h-155zM309 500q0 -169 95.5 -272t244.5 -103q148 0 241 106t93 271t-92.5 268.5t-241.5 103.5t-244.5 -102 t-95.5 -272z" />
<glyph unicode="c" horiz-adv-x="1009" d="M92 500q0 219 150.5 370.5t367.5 151.5q178 0 303 -92l-75 -131q-91 75 -228 75q-153 0 -257.5 -108.5t-104.5 -265.5q0 -158 104 -266.5t258 -108.5q140 0 234 78l84 -125q-135 -101 -318 -101q-143 0 -261.5 68.5t-187.5 189t-69 265.5z" />
<glyph unicode="d" horiz-adv-x="1234" d="M92 502q0 141 57.5 258t171.5 189.5t265 72.5q96 0 184 -42t150 -120v807h155v-1667h-155v139q-53 -75 -146 -118.5t-182 -43.5q-215 0 -357.5 147.5t-142.5 377.5zM252 502q0 -165 93 -271t241 -106q149 0 244.5 103t95.5 272q0 170 -95.5 272t-244.5 102t-241.5 -103.5 t-92.5 -268.5z" />
<glyph unicode="e" horiz-adv-x="1107" d="M92 498q0 227 137 375.5t346 148.5q213 0 335 -152q117 -146 116 -383v-20h-774q0 -142 97.5 -242t244.5 -100q182 0 307 119l98 -113q-163 -154 -405 -154q-220 0 -361 145.5t-141 375.5zM264 616h598q-12 53 -33 96.5t-54.5 81t-84.5 59t-115 21.5q-114 0 -196.5 -67.5 t-114.5 -190.5z" />
<glyph unicode="f" horiz-adv-x="632" d="M82 856v143h92v402q0 121 84 205t203 84q97 0 172 -56l-70 -131q-42 39 -100 39q-62 0 -97.5 -42t-35.5 -99v-402h248v-143h-248v-856h-156v856h-92z" />
<glyph unicode="g" horiz-adv-x="1230" d="M92 502q0 141 57.5 258t171.5 189.5t265 72.5q96 0 185 -42t151 -120v139h155v-845q0 -74 -5 -134t-20 -127t-40 -118.5t-67.5 -100t-100 -80t-140.5 -50.5t-186 -19q-189 0 -364 96l53 139q150 -88 311 -88q97 0 167 19.5t116 55t73 94.5t37.5 129.5t10.5 168.5 q-53 -75 -147 -118.5t-183 -43.5q-215 0 -357.5 147.5t-142.5 377.5zM250 502q0 -165 93.5 -271t242.5 -106t245.5 103t96.5 272q0 170 -96.5 272t-245.5 102t-242.5 -104t-93.5 -268z" />
<glyph unicode="h" horiz-adv-x="1112" d="M160 0v1667h155v-768q68 68 138.5 95.5t152.5 27.5q154 0 258.5 -110.5t104.5 -295.5v-616h-156v621q0 253 -250 253q-105 0 -176.5 -76t-71.5 -184v-614h-155z" />
<glyph unicode="i" horiz-adv-x="458" d="M129 1374q0 43 31 75t73 32q44 0 75.5 -32t31.5 -75t-31.5 -74.5t-75.5 -31.5q-43 0 -73.5 31.5t-30.5 74.5zM154 0v999h159v-999h-159z" />
<glyph unicode="j" horiz-adv-x="454" d="M-150 -422l70 133q39 -39 98 -39q63 0 100.5 43t37.5 99v1185h155v-1185q0 -121 -84 -205t-204 -84q-94 0 -173 53zM129 1374q0 43 31 75t73 32q44 0 75.5 -32t31.5 -75t-31.5 -74.5t-75.5 -31.5q-43 0 -73.5 31.5t-30.5 74.5z" />
<glyph unicode="k" horiz-adv-x="1030" d="M160 0v1667h157v-1036l375 368h215l-444 -440l516 -559h-207l-455 492v-492h-157z" />
<glyph unicode="l" horiz-adv-x="475" d="M160 0v1667h155v-1667h-155z" />
<glyph unicode="m" horiz-adv-x="1632" d="M154 0v999h155v-100q61 61 121 92t143 31q88 0 155 -39.5t110 -105.5q76 82 148.5 113.5t172.5 31.5q140 0 235 -105.5t95 -273.5v-643h-156v647q0 66 -19 112t-52.5 69t-68.5 32.5t-77 9.5q-93 0 -156 -64.5t-63 -158.5v-647h-154v647q0 66 -19 112t-52.5 69t-68.5 32.5 t-77 9.5q-93 0 -155 -64.5t-62 -158.5v-647h-155z" />
<glyph unicode="n" horiz-adv-x="1103" d="M154 0v999h155v-100q68 68 138.5 95.5t152.5 27.5q154 0 257.5 -111.5t103.5 -296.5v-614h-156v621q0 253 -248 253q-105 0 -176.5 -76t-71.5 -184v-614h-155z" />
<glyph unicode="o" horiz-adv-x="1239" d="M92 498q0 145 70.5 265.5t191 189.5t264.5 69q145 0 266.5 -69t192 -189.5t70.5 -265.5q0 -108 -41.5 -204.5t-112.5 -166t-169 -110t-206 -40.5q-144 0 -264.5 68.5t-191 188.5t-70.5 264zM252 498q0 -157 105.5 -265t260.5 -108q156 0 262.5 108t106.5 265 q0 159 -106.5 267.5t-262.5 108.5q-155 0 -260.5 -108.5t-105.5 -267.5z" />
<glyph unicode="p" horiz-adv-x="1236" d="M160 -453v1452h155v-139q53 75 147 118.5t183 43.5q215 0 357.5 -147t142.5 -377q0 -141 -57.5 -258.5t-171.5 -190t-265 -72.5q-96 0 -185 42t-151 120v-592h-155zM309 500q0 -170 96.5 -272.5t245.5 -102.5t241.5 104t92.5 269t-93 270.5t-241 105.5 q-149 0 -245.5 -102.5t-96.5 -271.5z" />
<glyph unicode="q" horiz-adv-x="1236" d="M92 498q0 230 142.5 377t357.5 147q89 0 183 -43.5t147 -118.5v139h155v-1452h-155v592q-62 -78 -151 -120t-185 -42q-151 0 -265 72.5t-171.5 190t-57.5 258.5zM252 498q0 -165 92.5 -269t241.5 -104t245.5 102.5t96.5 272.5q0 169 -96.5 271.5t-245.5 102.5 q-148 0 -241 -105.5t-93 -270.5z" />
<glyph unicode="r" horiz-adv-x="839" d="M154 0v999h155v-120q49 67 120.5 105t158.5 38q115 0 200 -49l-77 -148q-57 49 -164 49q-100 0 -169 -68.5t-69 -168.5v-637h-155z" />
<glyph unicode="s" horiz-adv-x="868" d="M82 125l88 123q117 -123 258 -123q22 0 48 4t65 16t64.5 43t25.5 76q0 75 -36 100.5t-163 61.5q-9 3 -14 4q-118 33 -168 61q-138 79 -139 244q0 90 51 157t127.5 98.5t163.5 31.5q184 0 317 -127l-92 -117q-96 96 -225 96q-28 0 -57.5 -7t-60 -21.5t-50 -43.5t-19.5 -67 q0 -37 10.5 -62t37 -41.5t49.5 -25t71 -21.5q5 -1 8.5 -2t8 -2.5t8.5 -2.5h1l1 -1h1h1h1l1 -1h1h1l1 -1h1q137 -38 193 -72q124 -76 124 -239q0 -95 -53.5 -162t-132.5 -96t-172 -29q-195 0 -346 148z" />
<glyph unicode="t" horiz-adv-x="657" d="M82 856v143h94v375h156v-375h205v-143h-205v-608q0 -49 27 -86t79 -37q48 0 86 33l82 -121q-73 -60 -170 -60q-109 0 -184.5 78t-75.5 193v608h-94z" />
<glyph unicode="u" horiz-adv-x="1079" d="M143 377v602h156v-602q0 -108 68.5 -180t173.5 -72t172 72t67 180v602h156v-602q0 -167 -114.5 -283.5t-280.5 -116.5t-282 116.5t-116 283.5z" />
<glyph unicode="v" horiz-adv-x="1085" d="M51 999h166l328 -700l323 700h166l-489 -1052z" />
<glyph unicode="w" horiz-adv-x="1693" d="M51 999h164l293 -688l340 684l332 -684l297 688h165l-454 -1044l-340 700l-350 -700z" />
<glyph unicode="x" horiz-adv-x="1056" d="M51 0l371 516l-369 483h191l280 -368l269 368h188l-363 -489l388 -510h-191l-297 395l-282 -395h-185z" />
<glyph unicode="y" horiz-adv-x="1085" d="M51 999h166l311 -731l340 731h166l-676 -1452h-161l247 545z" />
<glyph unicode="z" horiz-adv-x="1005" d="M82 0l567 852h-506v147h781l-566 -852h553v-147h-829z" />
<glyph unicode="&#xa8;" horiz-adv-x="1230" d="M393 1272q0 38 28 67t66 29q39 0 68 -29t29 -67t-29 -67t-68 -29q-38 0 -66 29t-28 67zM741 1272q0 38 28.5 67t66.5 29q39 0 67.5 -28.5t28.5 -67.5t-28.5 -67.5t-67.5 -28.5q-38 0 -66.5 29t-28.5 67z" />
<glyph unicode="&#xa9;" horiz-adv-x="1239" d="M92 498q0 145 70.5 265.5t191 189.5t264.5 69q145 0 266.5 -69t192 -189.5t70.5 -265.5q0 -108 -41.5 -204.5t-112.5 -166t-169 -110t-206 -40.5q-144 0 -264.5 68.5t-191 188.5t-70.5 264zM252 498q0 -157 105.5 -265t260.5 -108q156 0 262.5 108t106.5 265 q0 159 -106.5 267.5t-262.5 108.5q-155 0 -260.5 -108.5t-105.5 -267.5zM358 500q0 117 79.5 196.5t195.5 79.5q99 0 160 -49l-80 -121q-32 29 -82 29q-55 0 -93 -39t-38 -96t38 -96t93 -39q51 0 82 28l88 -117q-72 -53 -168 -53q-116 0 -195.5 80t-79.5 197z" />
<glyph unicode="&#xab;" horiz-adv-x="978" d="M123 492l344 436l108 -86l-276 -350l276 -340l-108 -84zM465 492l344 436l109 -86l-277 -350l277 -340l-109 -84z" />
<glyph unicode="&#xad;" d="M143 588v147h641v-147h-641z" />
<glyph unicode="&#xb0;" horiz-adv-x="659" d="M61 1425q0 112 78 188.5t189 76.5q113 0 191.5 -76.5t78.5 -188.5t-78.5 -189t-191.5 -77q-111 0 -189 77t-78 189zM199 1425q0 -57 37.5 -95t91.5 -38q57 0 95 38t38 95q0 56 -38 93.5t-95 37.5q-54 0 -91.5 -38t-37.5 -93z" />
<glyph unicode="&#xb4;" horiz-adv-x="579" d="M139 1270l312 119l30 -146l-323 -67z" />
<glyph unicode="&#xbb;" horiz-adv-x="978" d="M61 152l277 340l-277 350l109 86l344 -436l-344 -424zM403 152l277 340l-277 350l109 86l344 -436l-344 -424z" />
<glyph unicode="&#xc4;" horiz-adv-x="1527" d="M82 0l682 1716l682 -1716h-170l-139 346h-750l-137 -346h-168zM446 494h635l-317 796zM453 1665q0 38 28 67t66 29q39 0 67.5 -28.5t28.5 -67.5t-28.5 -67.5t-67.5 -28.5q-38 0 -66 29t-28 67zM883 1665q0 38 28 67t66 29q39 0 67.5 -28.5t28.5 -67.5t-28.5 -67.5 t-67.5 -28.5q-38 0 -66 29t-28 67z" />
<glyph unicode="&#xd6;" horiz-adv-x="1886" d="M113 834q0 245 107.5 441t297 305.5t426.5 109.5q177 0 331 -64t264 -176.5t172.5 -272t62.5 -343.5t-62.5 -343.5t-172 -272t-264 -177t-331.5 -64.5t-331.5 64.5t-264 177t-172.5 272t-63 343.5zM276 834q0 -201 85.5 -362t238 -252t344.5 -91q144 0 268 53.5 t211.5 146.5t137 224t49.5 281q0 202 -85 362.5t-237 251t-344 90.5t-344.5 -90.5t-238 -251t-85.5 -362.5zM285 1665q0 38 28 67t66 29q39 0 67.5 -28.5t28.5 -67.5t-28.5 -67.5t-67.5 -28.5q-38 0 -66 29t-28 67zM1411 1665q0 38 28 67t66 29q39 0 68 -28.5t29 -67.5 t-29 -67.5t-68 -28.5q-38 0 -66 29t-28 67z" />
<glyph unicode="&#xdc;" horiz-adv-x="1533" d="M184 565v1102h160v-1102q0 -182 122.5 -309t301.5 -127q178 0 300 127t122 309v1102h160v-1102q0 -162 -77 -297.5t-210.5 -213t-294.5 -77.5q-121 0 -229.5 46t-186 124t-123 187t-45.5 231zM498 1661q0 38 28 67t66 29q39 0 67.5 -28.5t28.5 -67.5t-28.5 -67.5 t-67.5 -28.5q-38 0 -66 29t-28 67zM846 1661q0 38 28 67t66 29q39 0 67.5 -28.5t28.5 -67.5t-28.5 -67.5t-67.5 -28.5q-38 0 -66 29t-28 67z" />
<glyph unicode="&#xdf;" horiz-adv-x="1183" d="M154 0v1300q0 164 115 277t278 113q165 0 280 -113t115 -277q0 -90 -40 -169.5t-107 -135.5q132 -69 214.5 -198.5t82.5 -282.5q0 -148 -72.5 -271.5t-196.5 -194.5t-270 -71v148q159 0 269 113t110 276q0 170 -111.5 284.5t-273.5 114.5v140q102 0 168.5 69.5 t66.5 177.5q0 102 -67 172t-168 70q-100 0 -169 -70.5t-69 -171.5v-1300h-155z" />
<glyph unicode="&#xe4;" horiz-adv-x="1077" d="M82 307q0 68 30 139.5t99 126.5q169 136 563 62q-10 133 -66 186t-184 53q-163 0 -307 -79l-63 135q173 92 372 92q102 0 178 -28t119 -71t69 -109t34 -128t8 -141v-545h-156v113q-43 -46 -90 -75.5t-94 -41.5t-79 -15.5t-73 -3.5q-90 0 -171 38t-135 115t-54 177z M242 307q0 -13 3 -30.5t16.5 -47t35 -52t64.5 -38.5t100 -14q157 6 237 78t80 207v79q-342 69 -471 -30q-65 -50 -65 -152zM270 1272q0 38 28.5 67t66.5 29q39 0 67.5 -28.5t28.5 -67.5t-28.5 -67.5t-67.5 -28.5q-38 0 -66.5 29t-28.5 67zM618 1272q0 38 28.5 67t66.5 29 q39 0 67.5 -28.5t28.5 -67.5t-28.5 -67.5t-67.5 -28.5q-38 0 -66.5 29t-28.5 67z" />
<glyph unicode="&#xeb;" horiz-adv-x="1107" d="M92 498q0 227 137 375.5t346 148.5q213 0 334.5 -152t116.5 -403h-774q0 -142 97.5 -242t244.5 -100q182 0 307 119l98 -113q-163 -154 -405 -154q-220 0 -361 145.5t-141 375.5zM264 616h598q-12 53 -33 96.5t-54.5 81t-84.5 59t-115 21.5q-114 0 -196.5 -67.5 t-114.5 -190.5zM285 1272q0 38 28 67t66 29q39 0 67.5 -28.5t28.5 -67.5t-28.5 -67.5t-67.5 -28.5q-38 0 -66 29t-28 67zM633 1272q0 38 28 67t66 29q39 0 67.5 -28.5t28.5 -67.5t-28.5 -67.5t-67.5 -28.5q-38 0 -66 29t-28 67z" />
<glyph unicode="&#xf6;" horiz-adv-x="1239" d="M92 498q0 145 70.5 265.5t191 189.5t264.5 69q145 0 266.5 -69t192 -189.5t70.5 -265.5q0 -108 -41.5 -204.5t-112.5 -166t-169 -110t-206 -40.5q-144 0 -264.5 68.5t-191 188.5t-70.5 264zM252 498q0 -157 105.5 -265t260.5 -108q156 0 262.5 108t106.5 265 q0 159 -106.5 267.5t-262.5 108.5q-155 0 -260.5 -108.5t-105.5 -267.5zM350 1272q0 38 28 67t66 29q40 0 68.5 -29t28.5 -67t-28.5 -67t-68.5 -29q-38 0 -66 29t-28 67zM698 1272q0 38 28.5 67t66.5 29q39 0 67.5 -28.5t28.5 -67.5t-28.5 -67.5t-67.5 -28.5q-38 0 -66.5 29 t-28.5 67z" />
<glyph unicode="&#xfc;" horiz-adv-x="1079" d="M143 377v602h156v-602q0 -108 68.5 -180t173.5 -72t172 72t67 180v602h156v-602q0 -167 -114.5 -283.5t-280.5 -116.5t-282 116.5t-116 283.5zM270 1272q0 38 28.5 67t66.5 29q39 0 67.5 -28.5t28.5 -67.5t-28.5 -67.5t-67.5 -28.5q-38 0 -66.5 29t-28.5 67zM618 1272 q0 38 28.5 67t66.5 29q39 0 67.5 -28.5t28.5 -67.5t-28.5 -67.5t-67.5 -28.5q-38 0 -66.5 29t-28.5 67z" />
<glyph unicode="&#x178;" horiz-adv-x="1384" d="M82 1667h178l430 -778l432 778h181l-533 -960v-707h-160v707zM422 1939q0 39 28 68t66 29q39 0 67.5 -29t28.5 -68t-28.5 -67.5t-67.5 -28.5q-38 0 -66 29t-28 67zM770 1939q0 39 28 68t66 29q39 0 68 -29t29 -68t-28.5 -67.5t-68.5 -28.5q-38 0 -66 29t-28 67z" />
<glyph unicode="&#x2000;" horiz-adv-x="1018" />
<glyph unicode="&#x2001;" horiz-adv-x="2036" />
<glyph unicode="&#x2002;" horiz-adv-x="1018" />
<glyph unicode="&#x2003;" horiz-adv-x="2036" />
<glyph unicode="&#x2004;" horiz-adv-x="678" />
<glyph unicode="&#x2005;" horiz-adv-x="509" />
<glyph unicode="&#x2006;" horiz-adv-x="339" />
<glyph unicode="&#x2007;" horiz-adv-x="339" />
<glyph unicode="&#x2008;" horiz-adv-x="254" />
<glyph unicode="&#x2009;" horiz-adv-x="407" />
<glyph unicode="&#x200a;" horiz-adv-x="113" />
<glyph unicode="&#x2010;" d="M143 588v147h641v-147h-641z" />
<glyph unicode="&#x2011;" d="M143 588v147h641v-147h-641z" />
<glyph unicode="&#x2012;" d="M143 588v147h641v-147h-641z" />
<glyph unicode="&#x2013;" horiz-adv-x="1091" d="M143 588v147h805v-147h-805z" />
<glyph unicode="&#x2014;" horiz-adv-x="1622" d="M129 588v147h1337v-147h-1337z" />
<glyph unicode="&#x2018;" horiz-adv-x="378" d="M100 1286v340h156l-35 -340h-121z" />
<glyph unicode="&#x2019;" horiz-adv-x="358" d="M100 1626h156v-340h-121z" />
<glyph unicode="&#x201d;" horiz-adv-x="634" d="M100 1626h156v-340h-121zM381 1626h156v-340h-121z" />
<glyph unicode="&#x201e;" horiz-adv-x="608" d="M100 340h156v-340h-121zM381 340h156v-340h-121z" />
<glyph unicode="&#x202f;" horiz-adv-x="407" />
<glyph unicode="&#x2039;" horiz-adv-x="636" d="M123 492l344 436l108 -86l-276 -350l276 -340l-108 -84z" />
<glyph unicode="&#x203a;" horiz-adv-x="636" d="M61 152l277 340l-277 350l109 86l344 -436l-344 -424z" />
<glyph unicode="&#x205f;" horiz-adv-x="509" />
<glyph unicode="&#x20ac;" horiz-adv-x="1433" d="M96 473l47 143h136v86h-183l47 144h156q52 224 213.5 358.5t390.5 134.5q231 0 414 -131l-49 -143q-140 131 -363 131q-166 0 -284.5 -94.5t-163.5 -255.5h741l-47 -144h-719v-86h690l-47 -143h-618q45 -163 162.5 -257.5t285.5 -94.5q214 0 361 131l86 -113 q-183 -162 -449 -162q-230 0 -392 135.5t-214 360.5h-201z" />
<glyph unicode="&#xe000;" horiz-adv-x="1003" d="M0 0v1004h1004v-1004h-1004z" />
<glyph unicode="&#xfb01;" horiz-adv-x="1091" d="M82 856v143h92v402q0 121 84 205t203 84q123 0 208 -84t85 -205h-156q0 65 -38.5 103t-96.5 38q-62 0 -97.5 -42t-35.5 -99v-402h428v-999h-160v856h-268v-856h-156v856h-92z" />
</font>
</defs>
</svg>
